#tb 0: 1001/30000
#media_type 0: video
#codec_id 0: rawvideo
#dimensions 0: 128x128
#sar 0: 4/3
0,          1,          1,        1,    24576, 0xa590edbd
0,          2,          2,        1,    24576, 0xcacfe561
0,          3,          3,        1,    24576, 0x783ef10c
0,          4,          4,        1,    24576, 0xbd5825c3
0,          5,          5,        1,    24576, 0xed9448c5
